<svg xmlns="http://www.w3.org/2000/svg" class="bods" xmlns:xlink="http://www.w3.org/1999/xlink" viewBox="0 0 120 40">
  <symbol id="human" viewBox="-4.7 -12.8 9.4 25.6">
    <ellipse cy="10.9" transform="rotate(-90 0 10.9)" rx="1.9" ry="1.9"/>
    <path d="M4.6 7.2c0 .6-.5 1.2-1.2 1.2h-7c-.6 0-1-.5-1-1.2V-1c0-1 .3-1.5.8-1.5s1 .5 1 1.4v6.6h.3v-17.3c0-.7.6-1 1.2-1 .5 0 1 .4 1 1v8.6h.7v-8.7c0-.6.6-1 1.2-1 .5 0 1 .5 1 1V5.7H3V-1c0-1 .3-1.4.8-1.4s1 .4 1 1.3L4.5 7z"/>
  </symbol>
  <use class="not-active" width="9.4" height="25.6" x="-4.7" y="-12.8" xlink:href="#human" transform="matrix(1 0 0 -1 5.605 17.563)" />
  <use class="not-active" width="9.4" height="25.6" x="-4.7" y="-12.8" xlink:href="#human" transform="matrix(1 0 0 -1 17.737 17.563)" />
  <use class="not-active" width="9.4" height="25.6" x="-4.7" y="-12.8" xlink:href="#human" transform="matrix(1 0 0 -1 29.87 17.563)" />
  <use class="not-active" width="9.4" height="25.6" x="-4.7" y="-12.8" xlink:href="#human" transform="matrix(1 0 0 -1 42.002 17.563)" />
  <use class="not-active" width="9.4" height="25.6" x="-4.7" y="-12.8" xlink:href="#human" transform="matrix(1 0 0 -1 54.134 17.563)" />
  <use class="not-active" width="9.4" height="25.6" x="-4.7" y="-12.8" xlink:href="#human" transform="matrix(1 0 0 -1 66.266 17.563)" />
  <use class="not-active" width="9.4" height="25.6" x="-4.7" y="-12.8" xlink:href="#human" transform="matrix(1 0 0 -1 78.4 17.563)" />
  <use class="not-active" width="9.4" height="25.6" x="-4.7" y="-12.8" xlink:href="#human" transform="matrix(1 0 0 -1 90.53 17.563)" />
  <use class="not-active" width="9.4" height="25.6" x="-4.7" y="-12.8" xlink:href="#human" transform="matrix(1 0 0 -1 102.663 17.563)" />
  <use class="not-active" width="9.4" height="25.6" x="-4.7" y="-12.8" xlink:href="#human" transform="matrix(1 0 0 -1 114.796 17.563)" />
</svg>
