<svg xmlns="http://www.w3.org/2000/svg" id="Layer_1" xmlns:xlink="http://www.w3.org/1999/xlink" viewBox="0 0 120 40">
  <symbol id="bar" viewBox="0 0 6 30">
    <rect width="6" height="30" x="0" y="0"/>
  </symbol>
  <use class="not-active" width="6" height="25" x="0" y="-30" xlink:href="#bar" transform="matrix(1 0 0 -1 0   0)"/>
  <use class="not-active" width="6" height="25" x="0" y="-30" xlink:href="#bar" transform="matrix(1 0 0 -1 12  0)"/>
  <use class="not-active" width="6" height="25" x="0" y="-30" xlink:href="#bar" transform="matrix(1 0 0 -1 24  0)"/>
  <use class="not-active" width="6" height="25" x="0" y="-30" xlink:href="#bar" transform="matrix(1 0 0 -1 36  0)"/>
  <use class="not-active" width="6" height="25" x="0" y="-30" xlink:href="#bar" transform="matrix(1 0 0 -1 48  0)"/>
  <use class="not-active" width="6" height="25" x="0" y="-30" xlink:href="#bar" transform="matrix(1 0 0 -1 60  0)"/>
  <use class="not-active" width="6" height="25" x="0" y="-30" xlink:href="#bar" transform="matrix(1 0 0 -1 72  0)"/>
  <use class="not-active" width="6" height="25" x="0" y="-30" xlink:href="#bar" transform="matrix(1 0 0 -1 84  0)"/>
  <use class="not-active" width="6" height="25" x="0" y="-30" xlink:href="#bar" transform="matrix(1 0 0 -1 96  0)"/>
  <use class="not-active" width="6" height="25" x="0" y="-30" xlink:href="#bar" transform="matrix(1 0 0 -1 108 0)"/>
</svg>
