<svg xmlns="http://www.w3.org/2000/svg" id="Layer_1" xmlns:xlink="http://www.w3.org/1999/xlink" viewBox="0 0 360 498.9">
  <style>
    .st0{fill:#D9C823;}
    .st1{fill:none;stroke:#FFFFFF;stroke-width:2;stroke-linecap:round;stroke-miterlimit:10;}
    .st2{fill:#FFFFFF;}
    .st3{opacity:0.5;fill:#EDEDED;enable-background:new ;} .st4{opacity:0.5;fill:#B2B2B2;enable-background:new ;} .st5{fill:#B2B2B2;} .st6{fill:#878787;} .st7{fill:#3C3C3B;} .st8{fill:#1D1D1B;} .st9{fill:#343434;} .st10{font-family:&apos;Blender-Book&apos;;} .st11{font-size:26.55px;} .st12{letter-spacing:-1;} .st13{font-family:&apos;Blender-Medium&apos;;} .st14{font-size:18.7px;} .st15{font-size:16.37px;} .st16{fill:none;stroke:#D9C823;stroke-width:2;stroke-miterlimit:10;}
  </style>
  <symbol id="happy" viewBox="-24.8 -24.8 49.6 49.6">
    <path d="M0-24.8c-13.7 0-24.8 11-24.8 24.8 0 13.7 11 24.8 24.8 24.8 13.7 0 24.8-11 24.8-24.8 0-13.7-11-24.8-24.8-24.8zM-8.4 4.5C-7 4.5-6 5.5-6 7-6 8-7 9.2-8.4 9.2c-1.3 0-2.4-1-2.4-2.3 0-1.3 1-2.4 2.4-2.5zM10.8 7c0 1.3-1 2.4-2.4 2.4S6 8.4 6 7c0-1.4 1-2.5 2.4-2.5 1.3 0 2.4 1 2.4 2.5z" class="st0"/>
    <path d="M-9.3-6.7s8.3-8 18.8 0" class="st1"/>
  </symbol>
  <symbol id="neutral" viewBox="-24.8 -24.8 49.6 49.6">
    <path d="M0-24.8c-13.7 0-24.8 11-24.8 24.8s11 24.8 24.8 24.8S24.8 13.8 24.8 0c0-13.7-11-24.8-24.8-24.8zM-8.4 4.5C-7 4.5-6 5.5-6 6.8-6 8-7 9.2-8 9.3c-1.3 0-2.4-1-2.5-2.3 0-1.3 1-2.4 2.3-2.5zM10.8 7c0 1.3-1 2.4-2.4 2.4S6 8.4 6 7c0-1.4 1-2.5 2.4-2.5 1.3 0 2.4 1 2.4 2.5z" class="st0"/>
    <line x1="-8.5" x2="8.3" y1="-7.6" y2="-7.6" class="st1"/>
  </symbol>
  <symbol id="sad" viewBox="-24.8 -24.8 49.6 49.6">
    <path d="M0-24.8c-13.7 0-24.8 11-24.8 24.8s11 24.8 24.8 24.8S24.8 13.8 24.8 0c0-13.7-11-24.8-24.8-24.8zM-8.4 4.5C-7 4.5-6 5.5-6 7-6 8-7 9.2-8.4 9.2c-1.3 0-2.4-1-2.4-2.3 0-1.3 1-2.4 2.4-2.5zM10.8 7c0 1.3-1 2.4-2.4 2.4S6 8.4 6 7c0-1.4 1-2.5 2.4-2.5 1.3 0 2.4 1 2.4 2.5z" class="st0"/>
    <path d="M9.4-10.2s-8.3 8-18.8 0" class="st1"/>
  </symbol>
  <symbol id="vhappy" viewBox="-24.8 -24.8 49.6 49.6">
    <path d="M0-24.8c-13.7 0-24.8 11-24.8 24.8s11 24.8 24.8 24.8c13.7 0 24.8-11 24.8-24.8 0-13.7-11-24.8-24.8-24.8zM-14-3.2c.4-5.4 2.6-9.5 7.3-12C-2-18 3.8-17.8 8-14.5c3.7 2.5 6 6.7 5.8 11.2H-14z" class="st0"/>
    <path d="M10 10.4L8 10c-2-.6-3.5-2.6-3.6-4.8 0-.6.4-1 1-1.2.7 0 1.2.5 1.2 1 0 .7.2 1.4.7 2 .8 1 2 1.3 3.2 1 1.6 0 3-1.3 3-3 0-.6.5-1 1-1 .6-.2 1 .3 1.2.8V5c0 .5 0 1-.2 1.4-.8 2.5-3 4-5.4 4zm-20 0c-.6 0-1.2 0-1.8-.3-2.2-.5-3.7-2.5-3.8-4.8 0-.6.4-1.2 1-1.2s1 .5 1 1c0 .7.3 1.2.6 1.7C-12 8-10.4 8.5-9 8c1.5-.3 2.5-1.6 2.5-3 0-.6.6-1 1-1 .7 0 1 .4 1 1v1.3c-.7 2.5-3 4-5.5 4.2z" class="st2"/>
  </symbol>
  <symbol id="vsad" viewBox="-24.8 -24.8 49.6 49.6">
    <path d="M0-24.8c-13.7 0-24.8 11-24.8 24.8 0 13.7 11 24.8 24.8 24.8 13.7 0 24.8-11 24.8-24.8 0-13.7-11-24.8-24.8-24.8z" class="st0"/>
    <path d="M10 10.4c-.7 0-1.3-.2-2-.3-2-.6-3.5-2.6-3.6-4.8 0-.6.4-1 1-1.2.7 0 1.2.5 1.2 1 0 .7.2 1.4.7 2 .8 1 2 1.3 3.2 1 1.6 0 3-1.3 3-3 0-.6.5-1 1-1 .6-.2 1 .3 1.2.8V5c0 .5 0 1-.2 1.4-.8 2.5-3 4-5.5 4zm-20 0c-.6 0-1.2 0-1.8-.3-2.2-.5-3.7-2.5-3.8-4.8 0-.6.4-1.2 1-1.2s1 .5 1 1c0 .7.3 1.2.6 1.7C-12 8-10.4 8.5-9 8c1.4-.2 2.4-1.5 2.4-3 0-.5.6-1 1.2-1s1 .5 1 1v.2c0 .4 0 .8-.2 1.2-.7 2.4-3 4-5.4 4zM0-3.3c5.3 0 9-2.3 11.4-6.7.4-.6.2-1.4-.4-1.8s-1.3-.2-1.7.4c-1 1.6-2 3-3.6 3.8-2 1.3-4.2 2-6.5 1.7-3.5 0-6.7-2-8.4-5.2-.2-.5-.7-.8-1.3-.7-.7.2-1.2.8-1.2 1.5 0 .2 0 .4.2.6.4.8 1 1.5 1.4 2 2 2.5 4.6 4 7.7 4.6H0z" class="st2"/>
  </symbol>
  <rect width="53.6" height="314" x="7.1" y="103.6" class="st3"/>
  <rect width="53.6" height="314" x="81.5" y="103.6" class="st3"/>
  <rect width="53.6" height="314" x="155.9" y="103.6" class="st3"/>
  <rect width="53.6" height="314" x="230.3" y="103.6" class="st3"/>
  <rect width="53.6" height="314" x="304.7" y="103.6" class="st3"/>
  <rect width="53.6" height="59.3" x="7.5" y="358.9" class="st4"/>
  <rect width="53.6" height="60.6" x="81.9" y="357.5" class="st5"/>
  <rect width="53.6" height="163.1" x="156.3" y="255.1" class="st6"/>
  <rect width="53.6" height="286.8" x="230.7" y="131.4" class="st7"/>
  <rect width="53.6" height="163.3" x="305.1" y="254.9" class="st8"/>
  <text transform="matrix(.96 0 0 1 104.34 351.19)" class="st9 st10 st11">
    3
  </text>
  <text transform="matrix(.96 0 0 1 27.63 351.52)" class="st9 st10 st11">
    3
  </text>
  <text transform="matrix(.96 0 0 1 175.55 247.62)" class="st9 st10 st11">
    8
  </text>
  <text transform="matrix(1 0 0 1 242.19 127.47)" class="st9 st10 st11 st12">
    1
  </text>
  <text transform="matrix(1 0 0 1 254.65 127.47)" class="st9 st10 st11">
    4
  </text>
  <text transform="matrix(.96 0 0 1 327.48 248.28)" class="st8 st10 st11">
    8
  </text>
  <g id="ColumnTickLables">
    <text transform="translate(104.28 443.94)" class="st9 st13 st14">
      2
    </text>
    <text transform="translate(29.11 443.94)" class="st9 st13 st14">
      1
    </text>
    <text transform="translate(178.4 443.94)" class="st9 st13 st14">
      3
    </text>
    <text transform="translate(251.07 443.94)" class="st9 st13 st14">
      4
    </text>
    <text transform="translate(326.2 443.94)" class="st9 st13 st14">
      5
    </text>
  </g>
  <text transform="matrix(.92 0 0 1 4.75 490.85)" class="st8 st10 st15">
    3.58/5 AVERAGE FEELING ABOUT WORK
  </text>
  <use width="49.6" height="49.6" x="-24.8" y="-24.8" xlink:href="#vhappy" transform="matrix(1 0 0 -1 330.13 27.64)" overflow="visible"/>
  <use width="49.6" height="49.6" x="-24.8" y="-24.8" xlink:href="#neutral" transform="matrix(1 0 0 -1 183.69 27.64)" overflow="visible"/>
  <use width="49.6" height="49.6" x="-24.8" y="-24.8" xlink:href="#sad" transform="matrix(1 0 0 -1 105.67 27.64)" overflow="visible"/>
  <use width="49.6" height="49.6" x="-24.8" y="-24.8" xlink:href="#happy" transform="matrix(1 0 0 -1 256.85 27.64)" overflow="visible"/>
  <use width="49.6" height="49.6" x="-24.8" y="-24.8" xlink:href="#vsad" transform="matrix(1 0 0 -1 27.64 27.64)" overflow="visible"/>
  <g id="Lines">
    <polyline points="7.5 474.3 220.5 474.3 220.5 30.9" class="st16"/>
  </g>
</svg>
