<svg xmlns="http://www.w3.org/2000/svg" id="Layer_1" viewBox="0 0 127.6 110.6">
  <circle cx="18.5" cy="27.4" r="6.4" class="active"/>
  <path d="M33.8 39.7c0-2-1.7-3.8-3.8-4H6.6c-2 .2-3.8 2-3.8 4v27.7c0 3 1.3 4.6 3 4.6s3-1.4 3-4.6V45h1.4V103c.2 2 2 3.5 4 3.3 1.6-.2 3-1.5 3-3.2V74.4h2.5V103c.2 2 2 3.5 4 3.3 1.6-.2 3-1.5 3-3.2V69.5 45H28v22.4c0 3 1.2 4.6 3 4.6s3-1.4 3-4.6l-.2-27.7z" class="active"/>
  <circle cx="108.5" cy="28.7" r="6.4" class="right-person"/>
  <path d="M124 41c0-2-1.8-3.8-4-4H96.7c-2 .2-3.8 2-3.8 4v27.7c0 3 1.3 4.6 3 4.6s3-1.4 3-4.6V46.4h1.4v58.1c.2 2 2 3.4 4 3.2 1.6-.2 3-1.5 3-3.2V75.7h2.5v28.8c.2 2 2 3.4 4 3.2 1.6-.2 3-1.5 3-3.2V70.8 46.3h1.2v22.4c0 3 1.2 4.6 3 4.6s3-1.4 3-4.6V41z" class="right-person"/>
  <path d="M50.3 3c.5 0 1 0 1.5.3C55 4 58 5.5 60.3 7.8s3.8 5.3 4 8.6c.2 2-.2 4.3-1.2 6.3-1.2 2.8-3.4 5-6 6.6-2.5 1.4-5 2.2-7.8 2.4-3.5.3-7-.5-10-2.2h-.4c-2 1-4 1.4-6 1-.3 0-.5 0-.5-.3 0-.2 0-.4.2-.5 1-.8 2-1.8 2.5-3V26c-.4-.4-.8-.8-1-1.2-2.5-3.2-3.2-7.3-2-11.2.8-3 2.7-5.8 5.4-7.7 3.2-2 7-3.3 10.8-3.2.5 0 1.3 0 2 .2zm7.2 10.7v-2.5H38.2v2.5h19.3zm-19.3 4.8h19.3V16H38.2v2.5zm0 4.8h11v-2.5h-11v2.5z" class="active"/>
  <path d="M38.2 13.8h17.6v-2.3H38.2v2.3zM38.2 16V18h17.6V16H38.2zM38.2 20.8v2.5h11v-2.5h-11z" class="question-mark"/>
  <path d="M76 3c4-.2 7.7 1 10.8 3.2 2.7 1.8 4.6 4.5 5.5 7.7 1 3.7.4 8-2 11-.3.5-.6 1-1 1.3v.4c.4 1.3 1.3 2.4 2.4 3 .2.2.3.4.2.6 0 .2-.3.3-.5.3-2 .3-4.3 0-6.2-1H85c-3 1.6-6.6 2.3-10.2 2-2.7 0-5.4-1-7.7-2.3-2.6-1.5-4.7-3.8-6-6.6-1-2-1.4-4-1.3-6.3.2-3.2 1.7-6.3 4-8.6s5.3-4 8.5-4.6L74 3h2z"/>
  <text class="question-mark" font-size="25.79" transform="translate(70.5 24.56)">?</text>
</svg>
