<svg xmlns="http://www.w3.org/2000/svg" id="Layer_1" viewBox="0 0 566.9 566.9">

  <circle id="CentreDot" cx="283.5" cy="283.5" r="60.9" class="centre-dot"/>
  <circle id="ThirdOrbit" cx="283.5" cy="283.5" r="99.2" class="guide-orbit"/>
  <circle id="BigOrbit" cx="283.5" cy="283.5" r="198.4" class="guide-orbit"/>
  <circle id="SecondOrbit" cx="283.5" cy="283.5" r="85" class="guide-orbit"/>
  <circle id="firstOrbit" cx="283.5" cy="283.5" r="70.9" class="guide-orbit"/>
  <!-- <path d="M456.4 151c-37 0-67 29.8-67 66.8 0 7.5 1.2 15 3.6 22l-37.5 15c-18-40.7-65.5-59.2-106.2-41.3-10.6 4.7-20 11.5-27.7 20l4.4 4c27.5-30.8 74.7-33.5 105.5-6 25.6 23 32.4 60.3 16.3 90.7l5.2 2.8c10.6-20 12.3-43.5 4.7-64.8l37.5-15c15.2 33.8 55 49 88.6 33.7s48.8-55 33.6-88.7c-10.8-24-34.7-39.3-61-39.4z" class=""/> -->
  <!-- <path d="M278.7 376.4c8.6 0 17.2-1.2 25.5-3.6l-1-3.5c-44.7 13-91.8-11-107.8-54.7l-3.4 1.2c7.8 21.2 23.2 38.8 43 49.5l-14.2 28c-22.8-10.5-49.8-.6-60.4 22.2-10.5 22.8-.6 49.8 22.2 60.4s49.8.5 60.4-22.3c10-21.5 1.7-47-19-58.7l14.3-28c12.6 6.2 26.4 9.4 40.4 9.4z" class=""/> -->
  <!-- <path d="M276.3 183c-8.6.3-17 2-25.2 4.6l1.2 3.4c44-14.5 91.7 7.5 109.3 50.3l3.3-1.4c-8.6-21-24.5-37.8-44.7-47.7l13.3-28.4c23 9.5 49.6-1.4 59.2-24.4 9.6-23-1.3-49.6-24.3-59.2s-49.6 1.3-59.2 24.3c-9 21.8 0 47 21 57.7l-13 28.4c-13-5.6-26.7-8.3-40.7-7.8zM207.3 267.6l-5.8-1c-2.3 12.4-1.6 25.2 2 37.4l-39 13c-.6-1.4-1.2-2.8-2-4.2-14.2-29.5-49.8-41.8-79.3-27.5s-41.8 50-27.5 79.4c14.3 29.5 50 41.8 79.4 27.5 26-12.6 39-42 31.3-69.5l39-13c.8 2.2 1.8 4.5 2.8 6.7 4.8 9.6 11.3 18.2 19.3 25.2l4-4.4c-19.7-17.4-28.8-43.8-24-69.6z" class=""/> -->
  <!-- <path d="M226.4 215.6l-3.2-5c-10.7 6.8-19.6 16-26 27L161 218.4l1.8-4.3c11.7-30.7-3.7-65-34.4-76.7-30.7-11.7-65 3.7-76.7 34.4s3.7 65 34.4 76.7c27 10.2 57.3-.3 72-25l36.5 19.6-3 6.8c-3.8 10-5.6 20.6-5.2 31.3h6c-1-26.4 12-51.2 34-65.4z" class=""/> -->
  <!-- <path d="M337 352l3.5 4.7c10.4-7.2 19-16.8 25-28l37 18-1.7 4.5c-10.6 31 6 64.8 37 75.4s65-6 75.5-37c10.6-31.2-6-65-37-75.5-27.3-9.2-57.3 2.4-71.2 27.5l-37-18c1-2.4 2-4.7 2.8-7 3.4-10 4.8-20.8 4-31.4l-5.8.5c1.8 26.2-10.3 51.4-32 66.4z" class=""/> -->
  <!-- <path d="M360.5 429c-5.2 0-10.4 1-15.2 2.7l-33.4-77c11.8-5.6 22-14 29.7-24.6l-2.7-2c-13.5 19-35.3 30-58.5 30-2.2 0-4.4 0-6.6-.2v3.4c2 .2 4.3.3 6.5.3 9.7 0 19.3-2 28.3-5.6l33.4 77c-21 10-30 35.3-19.8 56.4 10 21 35.4 30 56.5 19.8 21-10 29.8-35.4 19.7-56.5-7-14.7-22-24-38-24v.2z" class=""/> -->
  <!-- <path d="M286.4 199c-12.8-1-25.7 1-37.4 6.4l-36-75.8c21-11 29-37 18-58s-37-29-58-18-29 37-18 58c10.5 19.8 34.4 28.3 55 19.4l36 75.8-5.3 3 1.8 2.8c13.2-8 28.6-11.7 44-10.3V199z" class=""/> -->
  <text transform="translate(266.02 276.04)" class="good-text  key-themes">
    KEY
  </text>
  <text transform="translate(244.82 304.84)" class="good-text  key-themes">
    THEMES
  </text>
  <g class="bad">
    <line x1="283.5" x2="359.4" y1="283.5" y2="466.8" class="hidden"/>
    <circle cx="359.4" cy="466.8" transform="rotate(-22 359.42 466.75)" class="" r="48.3"/>
    <line x1="316.4" x2="359.4" y1="363" y2="466.8" class=""/>
    <text transform="translate(320.37 479.09)" class="bad-text  ">
      FRUSTRATED
    </text>
    <text transform="translate(352.46 453.62)" class="bad-text operator ">
      _
    </text>
  </g>
  <g class="bad">
    <line x1="283.5" x2="466.8" y1="283.5" y2="359.4" class="hidden"/>
    <circle cx="466.8" cy="359.4" transform="rotate(-67 466.79 359.39)" class="" r="48.3"/>
    <line x1="363" x2="466.8" y1="316.4" y2="359.4" class=""/>
    <text transform="translate(432.54 353.35)" class="bad-text  ">
      PROBLEMS
    </text>
    <text transform="translate(421.95 371.37)" class="bad-text  ">
      OUTSIDE WORK
    </text>
    <text transform="translate(459.85 326.37)" class="bad-text operator ">
      _
    </text>
  </g>
  <g class="bad">
    <line x1="283.5" x2="207.5" y1="283.5" y2="466.8" class="hidden"/>
    <circle cx="207.5" cy="466.8" transform="rotate(-67 207.54 466.78)" class="" r="48.3"/>
    <line x1="250.5" x2="207.5" y1="363" y2="466.8" class=""/>
    <text transform="translate(176.69 452.04)" class="bad-text  ">
      TOO MUCH
    </text>
    <text transform="translate(189.87 467.06)" class="bad-text  ">
      WORK
    </text>
    <text transform="translate(200.59 431.69)" class="bad-text operator ">
      _
    </text>
  </g>
  <g class="good">
    <line x1="283.5" x2="100.1" y1="283.5" y2="207.5" class="hidden"/>
    <circle cx="100.1" cy="207.5" transform="rotate(-67 100.15 207.53)" class="" r="48.3"/>
    <line x1="204" x2="100.1" y1="250.5" y2="207.5" class=""/>
    <text transform="translate(59.01 200.46)" class="good-text  ">
      WELL RESTED
    </text>
    <text transform="translate(92.43 181.87)" class="good-text operator ">
      +
    </text>
  </g>
  <g class="good">
    <line x1="283.5" x2="100.1" y1="283.5" y2="359.4" class="hidden"/>
    <circle cx="100.1" cy="359.4" transform="rotate(-22 100.16 359.38)" class="" r="48.3"/>
    <line x1="204" x2="100.1" y1="316.4" y2="359.4" class=""/>
    <text transform="translate(44.89 357.3)" class="good-text  ">
      AMAZING PROJECT
    </text>
    <text transform="translate(92.42 334.7)" class="good-text operator ">
      +
    </text>
  </g>
  <g class="good">
    <line x1="283.5" x2="359.4" y1="283.5" y2="100.1" class="hidden"/>
    <circle cx="359.4" cy="100.1" transform="rotate(-67 359.4 100.14)" class="" r="48.3"/>
    <line x1="316.4" x2="359.4" y1="204" y2="100.1" class=""/>
    <text transform="translate(325.61 97.04)" class="good-text  ">
      FLEXIBILITY
    </text>
    <text transform="translate(351.68 81.41)" class="good-text operator ">
      +
    </text>
  </g>
  <g class="good">
    <line x1="283.5" x2="207.5" y1="283.5" y2="100.1" class="hidden"/>
    <circle cx="207.5" cy="100.1" transform="rotate(-22 207.53 100.13)" class="" r="48.3"/>
    <line x1="250.5" x2="207.5" y1="204" y2="100.1" class=""/>
    <text transform="translate(168.85 105.43)" class="good-text  ">
      SHORT WEEK
    </text>
    <text transform="translate(199.81 78.41)" class="good-text operator ">
      +
    </text>
  </g>
  <g class="good">
    <line x1="283.5" x2="466.8" y1="283.5" y2="207.5" class="hidden"/>
    <circle cx="466.8" cy="207.5" transform="rotate(-22 466.78 207.5)" class="" r="48.3"/>
    <line x1="363" x2="466.8" y1="250.5" y2="207.5" class=""/>
    <text transform="translate(412.89 222.69)" class="good-text  ">
      PEOPLE IN STUDIO
    </text>
    <text transform="translate(459.07 197.41)" class="good-text operator ">
      +
    </text>
  </g>
</svg>
