<svg id="faces" xmlns="http://www.w3.org/2000/svg" xmlns:xlink="http://www.w3.org/1999/xlink" viewBox="25 -25 360 50">
  <symbol id="happy" viewBox="-25 -25 50 50">
    <path d="M0-25c-13.7 0-25 11-25 25 0 13.7 11 25 25 25 13.7 0 25-11 25-25 0-13.7-11-25-25-25zM-8.4 4.5C-7 4.5-6 5.5-6 7-6 8-7 9.2-8.4 9.2c-1.3 0-2.4-1-2.4-2.3 0-1.3 1-2.4 2.4-2.5zM10.8 7c0 1.3-1 2.4-2.4 2.4S6 8.4 6 7c0-1.4 1-2.5 2.4-2.5 1.3 0 2.4 1 2.4 2.5z" class="active"/>
    <path d="M-9.3-6.7s8.3-8 18.8 0" class="face-line"/>
  </symbol>
  <symbol id="neutral" viewBox="-25 -25 50 50">
    <path d="M0-25c-13.7 0-25 11-25 25s11 25 25 25S25 13.8 25 0c0-13.7-11-25-25-25zM-8.4 4.5C-7 4.5-6 5.5-6 6.8-6 8-7 9.2-8 9.3c-1.3 0-2.4-1-2.5-2.3 0-1.3 1-2.4 2.3-2.5zM10.8 7c0 1.3-1 2.4-2.4 2.4S6 8.4 6 7c0-1.4 1-2.5 2.4-2.5 1.3 0 2.4 1 2.4 2.5z" class="active"/>
    <line x1="-8.5" x2="8.3" y1="-7.6" y2="-7.6" class="face-line"/>
  </symbol>
  <symbol id="sad" viewBox="-25 -25 50 50">
    <path d="M0-25c-13.7 0-25 11-25 25s11 25 25 25S25 13.8 25 0c0-13.7-11-25-25-25zM-8.4 4.5C-7 4.5-6 5.5-6 7-6 8-7 9.2-8.4 9.2c-1.3 0-2.4-1-2.4-2.3 0-1.3 1-2.4 2.4-2.5zM10.8 7c0 1.3-1 2.4-2.4 2.4S6 8.4 6 7c0-1.4 1-2.5 2.4-2.5 1.3 0 2.4 1 2.4 2.5z" class="active"/>
    <path d="M9.4-10.2s-8.3 8-18.8 0" class="face-line"/>
  </symbol>
  <symbol id="vhappy" viewBox="-25 -25 50 50">
    <path d="M0-25c-13.7 0-25 11-25 25s11 25 25 25c13.7 0 25-11 25-25 0-13.7-11-25-25-25zM-14-3.2c.4-5.4 2.6-9.5 7.3-12C-2-18 3.8-17.8 8-14.5c3.7 2.5 6 6.7 5.8 11.2H-14z" class="active"/>
    <path d="M10 10.4L8 10c-2-.6-3.5-2.6-3.6-4.8 0-.6.4-1 1-1.2.7 0 1.2.5 1.2 1 0 .7.2 1.4.7 2 .8 1 2 1.3 3.2 1 1.6 0 3-1.3 3-3 0-.6.5-1 1-1 .6-.2 1 .3 1.2.8V5c0 .5 0 1-.2 1.4-.8 2.5-3 4-5.4 4zm-20 0c-.6 0-1.2 0-1.8-.3-2.2-.5-3.7-2.5-3.8-4.8 0-.6.4-1.2 1-1.2s1 .5 1 1c0 .7.3 1.2.6 1.7C-12 8-10.4 8.5-9 8c1.5-.3 2.5-1.6 2.5-3 0-.6.6-1 1-1 .7 0 1 .4 1 1v1.3c-.7 2.5-3 4-5.5 4.2z" class="face-fill"/>
  </symbol>
  <symbol id="vsad" viewBox="-25 -25 50 50">
    <path d="M0-25c-13.7 0-25 11-25 25 0 13.7 11 25 25 25 13.7 0 25-11 25-25 0-13.7-11-25-25-25z" class="active"/>
    <path d="M10 10.4c-.7 0-1.3-.2-2-.3-2-.6-3.5-2.6-3.6-4.8 0-.6.4-1 1-1.2.7 0 1.2.5 1.2 1 0 .7.2 1.4.7 2 .8 1 2 1.3 3.2 1 1.6 0 3-1.3 3-3 0-.6.5-1 1-1 .6-.2 1 .3 1.2.8V5c0 .5 0 1-.2 1.4-.8 2.5-3 4-5.5 4zm-20 0c-.6 0-1.2 0-1.8-.3-2.2-.5-3.7-2.5-3.8-4.8 0-.6.4-1.2 1-1.2s1 .5 1 1c0 .7.3 1.2.6 1.7C-12 8-10.4 8.5-9 8c1.4-.2 2.4-1.5 2.4-3 0-.5.6-1 1.2-1s1 .5 1 1v.2c0 .4 0 .8-.2 1.2-.7 2.4-3 4-5.4 4zM0-3.3c5.3 0 9-2.3 11.4-6.7.4-.6.2-1.4-.4-1.8s-1.3-.2-1.7.4c-1 1.6-2 3-3.6 3.8-2 1.3-4.2 2-6.5 1.7-3.5 0-6.7-2-8.4-5.2-.2-.5-.7-.8-1.3-.7-.7.2-1.2.8-1.2 1.5 0 .2 0 .4.2.6.4.8 1 1.5 1.4 2 2 2.5 4.6 4 7.7 4.6H0z" class="face-fill"/>
  </symbol>
  <use width="50" height="50" x="0" y="0" transform="matrix(1 0 0 -1 330 25)" xlink:href="#vhappy"/>
  <use width="50" height="50" x="0" y="0" transform="matrix(1 0 0 -1 183 25)" xlink:href="#neutral"/>
  <use width="50" height="50" x="0" y="0" transform="matrix(1 0 0 -1 105 25)" xlink:href="#sad"/>
  <use width="50" height="50" x="0" y="0" transform="matrix(1 0 0 -1 256 25)" xlink:href="#happy"/>
  <use width="50" height="50" x="0" y="0" transform="matrix(1 0 0 -1  27 25)" xlink:href="#vsad"/>






</svg>
